<?xml version="1.0" encoding="utf-8"?>
<!-- Generator: Adobe Illustrator 24.1.0, SVG Export Plug-In . SVG Version: 6.00 Build 0)  -->
<svg version="1.1" id="Camada_1" xmlns="http://www.w3.org/2000/svg" xmlns:xlink="http://www.w3.org/1999/xlink" x="0px" y="0px"
	 viewBox="0 0 166.2 61.5" style="enable-background:new 0 0 166.2 61.5;" xml:space="preserve">
<style type="text/css">
	.st0{fill:#FFFFFF;}
</style>
<path class="st0" d="M78.4,33.4l2.9,2.9l-2.9,2.9l0,0l0,0l-2.9-2.9L78.4,33.4L78.4,33.4L78.4,33.4z M75.9,32.5
	c-0.5,1.3-1.3,2.5-2.3,3.5c-1,1-2.1,1.8-3.4,2.3c-1.3,0.5-2.8,0.8-4.2,0.8c0,0,0,0,0,0s0,0,0,0c-2.9,0-5.6-1.1-7.6-3.1
	c-1-1-1.8-2.2-2.3-3.5c-0.6-1.4-0.9-2.9-0.8-4.5V9.2h0h5.4h0v9.8c0.3-0.4,0.7-0.7,1.1-1c0.4-0.3,0.9-0.5,1.3-0.7
	c0.5-0.2,1-0.3,1.5-0.4c0.5-0.1,1-0.1,1.5-0.1c0,0,0,0,0,0c0,0,0,0,0,0c1.4,0,2.9,0.3,4.2,0.8c1.3,0.5,2.4,1.3,3.4,2.3
	c1,1,1.8,2.2,2.3,3.5c0.6,1.4,0.9,2.9,0.8,4.5C76.7,29.5,76.5,31.1,75.9,32.5z M65.9,33.7c0.7,0,1.4-0.1,2.1-0.4
	c0.6-0.3,1.2-0.7,1.7-1.2c0.5-0.5,0.9-1.1,1.2-1.8c0.3-0.7,0.4-1.5,0.4-2.3c0-0.8-0.1-1.6-0.4-2.3c-0.3-0.7-0.7-1.3-1.2-1.8
	c-0.5-0.5-1.1-0.9-1.7-1.2c-0.7-0.3-1.4-0.4-2.1-0.4c-0.7,0-1.4,0.2-2.1,0.5c-0.6,0.3-1.2,0.8-1.7,1.3c-0.5,0.5-0.9,1.2-1.1,1.8
	c-0.3,0.7-0.4,1.4-0.4,2.1c0,0.8,0.1,1.5,0.4,2.3c0.3,0.7,0.6,1.3,1.1,1.8c0.5,0.5,1.1,0.9,1.7,1.2C64.5,33.6,65.2,33.7,65.9,33.7z
	 M100.9,23.4c0.6,1.5,0.9,3,0.8,4.6c0,1.5-0.3,3-0.8,4.4c-0.5,1.3-1.3,2.5-2.3,3.5c-1,1-2.1,1.8-3.4,2.3c-1.3,0.6-2.8,0.9-4.2,0.9
	c-1.4,0-2.9-0.3-4.2-0.9c-2.6-1.1-4.7-3.2-5.7-5.9c-0.6-1.4-0.9-2.9-0.8-4.4c0-1.5,0.3-3,0.8-4.5c0.5-1.3,1.3-2.5,2.3-3.5
	c1-1,2.1-1.8,3.4-2.3c1.3-0.6,2.7-0.9,4.2-0.8c0,0,0,0,0,0s0,0,0,0c1.4,0,2.9,0.3,4.2,0.8c1.3,0.5,2.4,1.3,3.4,2.3
	C99.5,20.9,100.3,22.1,100.9,23.4z M90.9,33.7c0.7,0,1.4-0.1,2.1-0.4c0.6-0.3,1.2-0.7,1.7-1.2c0.5-0.5,0.9-1.1,1.2-1.8
	c0.3-0.7,0.4-1.5,0.4-2.3h0h0c0-0.8-0.1-1.6-0.4-2.4c-0.3-0.7-0.7-1.3-1.2-1.8c-0.5-0.5-1.1-0.9-1.7-1.2c-0.7-0.3-1.4-0.4-2.1-0.4
	c-0.7,0-1.4,0.1-2.1,0.4c-0.6,0.3-1.2,0.7-1.7,1.2c-0.5,0.5-0.9,1.1-1.1,1.8c-0.3,0.8-0.4,1.6-0.4,2.4c0,0.8,0.1,1.5,0.4,2.3
	c0.3,0.7,0.6,1.3,1.1,1.8c0.5,0.5,1.1,0.9,1.7,1.2C89.5,33.6,90.2,33.7,90.9,33.7z M123.5,38.7v-12c0-1.3-0.1-2.7-0.4-4
	c-0.3-1.1-0.8-2.2-1.5-3.1c-0.8-0.9-1.7-1.6-2.8-2c-1.4-0.5-3-0.8-4.5-0.7c0,0,0,0,0,0c0,0,0,0,0,0c-1.7,0-3.4,0.1-5.1,0.4
	c-1.3,0.2-2.7,0.5-4,0.8l0,20.5h0h6h0V22.3c0.4-0.1,0.8-0.1,1.3-0.1c0.5,0,0.9-0.1,1.4-0.1c1.1-0.1,2.2,0.3,2.9,1.2
	c0.6,1.3,0.9,2.7,0.8,4.1v11.3h0H123.5L123.5,38.7z M145.2,17.5L145.2,17.5h-6h0v16.4c-0.4,0.1-0.8,0.1-1.3,0.1
	c-0.5,0-0.9,0.1-1.4,0.1c-0.1,0-0.3,0-0.4,0c-1,0-1.9-0.5-2.4-1.3c-0.6-1.3-0.9-2.8-0.8-4.2V17.5h0h-6h0v11.8c0,1.3,0.1,2.7,0.4,4
	c0.3,1.1,0.8,2.2,1.5,3.1c0.8,0.9,1.7,1.6,2.8,2c1.4,0.5,3,0.8,4.5,0.7c0,0,0,0,0,0c0,0,0,0,0,0c1.7,0,3.4-0.1,5.1-0.4
	c1.3-0.2,2.7-0.5,4-0.8L145.2,17.5z M59.3,50.9c-0.1-0.1-0.1-0.1-0.1-0.2c0-0.1,0-0.2,0-0.3v-5.9l0,0v0l-0.6,0.1v5.8
	c0,0.2,0,0.4,0.1,0.6c0,0.1,0.1,0.3,0.2,0.4c0.1,0.1,0.2,0.2,0.4,0.2c0.2,0,0.3,0.1,0.5,0.1v0c0,0,0,0,0,0l0.1-0.5
	c-0.1,0-0.2,0-0.3-0.1C59.4,51,59.4,51,59.3,50.9z M155,47.3c0.4,0.5,0.6,1.1,0.5,1.7c0,0,0,0.1,0,0.1s0,0.1,0,0.1h-3.3
	c0,0.5,0.1,0.9,0.4,1.3c0.3,0.3,0.8,0.5,1.3,0.5c0.3,0,0.5,0,0.8-0.1c0.1,0,0.3-0.1,0.4-0.2l0,0c0,0,0,0,0,0l0.1,0.5
	c-0.2,0.1-0.3,0.1-0.5,0.2c-0.3,0.1-0.5,0.1-0.8,0.1c-0.4,0-0.7-0.1-1.1-0.2c-0.3-0.1-0.5-0.3-0.7-0.5c-0.1-0.1-0.2-0.2-0.2-0.4
	c-0.1-0.1-0.1-0.3-0.2-0.4c-0.1-0.3-0.1-0.6-0.1-1l0,0c0-0.4,0.1-0.7,0.2-1.1c0.1-0.3,0.3-0.5,0.5-0.8c0.2-0.2,0.4-0.4,0.7-0.5
	c0.2-0.1,0.5-0.1,0.8-0.1C154.1,46.7,154.6,46.9,155,47.3C155,47.3,155,47.3,155,47.3C155,47.3,155,47.3,155,47.3z M154.8,48.2
	c-0.1-0.2-0.1-0.4-0.3-0.5c-0.2-0.3-0.6-0.4-0.9-0.4c-0.2,0-0.4,0-0.6,0.1c-0.2,0.1-0.3,0.2-0.4,0.3c-0.1,0.1-0.2,0.3-0.3,0.5
	c-0.1,0.2-0.1,0.4-0.1,0.6h2.7C154.9,48.6,154.9,48.4,154.8,48.2z M157.3,33.4l8.9-15.7h0h-17.6h0V23h0h8.9l-8.9,15.7h0h17.6h0v-5.4
	h0H157.3z M0,0h44.1v61.5h-17C12.1,61.5,0,49.3,0,34.4V0z M6,10.5c0.3-0.4,0.7-0.7,1.1-1C7.5,9.3,8,9,8.5,8.8C9,8.6,9.5,8.5,10,8.4
	c0.5-0.1,1-0.1,1.5-0.1c1.5,0,2.9,0.3,4.3,0.9c1.3,0.6,2.5,1.4,3.5,2.4c1,1,1.8,2.3,2.3,3.6c0.3,0.7,0.5,1.4,0.6,2.2
	c0.4-2.2,1.5-4.2,3-5.8c1-1,2.2-1.8,3.5-2.4c1.3-0.6,2.8-0.9,4.3-0.9c1.5,0,2.9,0.3,4.3,0.8c1.1,0.4,2.1,1.1,3,1.8V3.8H6V10.5z
	 M37.5,17.2c-0.3-0.7-0.7-1.3-1.2-1.8c-0.5-0.5-1.1-0.9-1.7-1.2c-1.4-0.5-2.9-0.5-4.2,0c-0.7,0.3-1.2,0.7-1.7,1.2
	c-0.5,0.5-0.9,1.2-1.2,1.8c-0.3,0.8-0.4,1.6-0.4,2.4c0,0.8,0.1,1.6,0.4,2.3c0.3,0.7,0.7,1.3,1.2,1.8c0.5,0.5,1.1,0.9,1.7,1.2
	c0.7,0.3,1.4,0.5,2.1,0.5c0.7,0,1.4-0.1,2.1-0.4c0.7-0.3,1.2-0.7,1.7-1.2c0.5-0.5,0.9-1.2,1.2-1.8c0.3-0.8,0.4-1.6,0.4-2.4
	C38,18.8,37.8,18,37.5,17.2z M16.5,17.3c-0.3-0.7-0.7-1.3-1.2-1.9c-0.5-0.5-1.1-0.9-1.7-1.2c-0.7-0.3-1.4-0.4-2.1-0.4
	c-0.7,0-1.5,0.2-2.1,0.5c-0.7,0.3-1.2,0.8-1.7,1.3c-0.5,0.5-0.9,1.2-1.2,1.9c-0.3,0.7-0.4,1.4-0.4,2.2c0,0.8,0.1,1.6,0.4,2.3
	c0.3,0.7,0.7,1.3,1.2,1.8c0.5,0.5,1.1,0.9,1.7,1.2c1.3,0.6,2.9,0.6,4.2,0c0.7-0.3,1.2-0.7,1.7-1.2c0.5-0.5,0.9-1.2,1.2-1.8
	c0.3-0.7,0.4-1.5,0.4-2.3h0C17,18.8,16.8,18,16.5,17.3z M3.8,34.4c0,12.9,10.4,23.3,23.3,23.3l13.1,0V28.1c-0.9,0.8-1.9,1.4-3,1.9
	c-2.7,1.2-5.8,1.2-8.5,0c-2.7-1.1-4.8-3.3-5.8-6c0.1-0.1,0.2-0.2,0.3-0.4c0.3-0.6,0.1-1.3-0.5-1.6c-0.6-0.3-1.3-0.1-1.6,0.5
	c-0.3,0.6-0.1,1.3,0.5,1.6c-0.5,1.3-1.3,2.5-2.3,3.6c-1,1-2.2,1.8-3.5,2.3c-1.4,0.6-2.8,0.8-4.3,0.8c-2.9,0-5.6-1.1-7.7-3.1V34.4z
	 M25.4,30.1L22.2,27l-3.1,3.1l3.1,3.1L25.4,30.1z M137.4,46.8L137.4,46.8L137.4,46.8l0,4.7h0.6v-3.2l0-1.5H137.4z M132.4,46.8h-0.6
	c-0.1,0.3-0.2,0.7-0.3,1s-0.2,0.7-0.3,1.1c-0.1,0.4-0.3,0.7-0.4,1s-0.3,0.6-0.4,0.9l0,0c-0.1-0.2-0.2-0.3-0.2-0.5
	c-0.1-0.1-0.1-0.2-0.2-0.4c-0.1-0.3-0.3-0.7-0.4-1c-0.1-0.4-0.2-0.7-0.3-1.1c-0.1-0.4-0.2-0.7-0.3-1h-0.6c0,0,0,0,0,0h0
	c0.1,0.4,0.2,0.9,0.4,1.3c0.1,0.4,0.3,0.8,0.4,1.2c0.1,0.4,0.3,0.8,0.5,1.1c0.2,0.4,0.3,0.7,0.5,1h0.5c0.2-0.3,0.3-0.7,0.5-1
	c0.2-0.4,0.3-0.7,0.5-1.1c0.1-0.4,0.3-0.8,0.4-1.2C132.2,47.7,132.3,47.3,132.4,46.8L132.4,46.8C132.4,46.8,132.4,46.8,132.4,46.8z
	 M138,45.1c-0.2-0.2-0.4-0.2-0.6,0c-0.1,0.1-0.2,0.3-0.1,0.5c0,0.1,0.1,0.1,0.1,0.2c0.2,0.2,0.4,0.2,0.6,0c0.1-0.1,0.1-0.2,0.1-0.3
	c0-0.1,0-0.1,0-0.2C138.1,45.2,138,45.1,138,45.1z M163.5,49.8c-0.1-0.1-0.2-0.3-0.3-0.4c-0.1-0.1-0.3-0.2-0.4-0.3
	c-0.2-0.1-0.3-0.1-0.5-0.2c-0.2-0.1-0.3-0.1-0.5-0.2c-0.1-0.1-0.2-0.1-0.3-0.2c-0.1-0.1-0.2-0.1-0.2-0.2c-0.1-0.1-0.1-0.2-0.1-0.3
	c0-0.1,0-0.2,0.1-0.3c0.1-0.1,0.1-0.2,0.2-0.2c0.1-0.1,0.2-0.1,0.3-0.1c0.1,0,0.2,0,0.4,0c0.3,0,0.5,0,0.8,0.1
	c0.1,0,0.2,0.1,0.4,0.1l0.1-0.5c0,0,0,0,0,0l0,0c-0.1-0.1-0.3-0.1-0.4-0.1c-0.3-0.1-0.5-0.1-0.8-0.1c-0.4,0-0.8,0.1-1.2,0.4
	c-0.3,0.2-0.4,0.6-0.4,0.9c0,0.2,0,0.3,0.1,0.5c0.1,0.1,0.2,0.3,0.3,0.4c0,0,0,0,0,0c0,0,0,0,0,0c0.1,0.1,0.3,0.2,0.4,0.3
	c0.2,0.1,0.3,0.1,0.5,0.2c0.2,0.1,0.4,0.2,0.5,0.2c0.1,0.1,0.2,0.1,0.4,0.2c0.1,0.1,0.2,0.1,0.2,0.2c0,0.1,0.1,0.2,0.1,0.3
	c0,0.2-0.1,0.5-0.3,0.6c-0.3,0.1-0.5,0.2-0.8,0.2l0,0c-0.2,0-0.3,0-0.5,0c-0.1,0-0.2,0-0.4-0.1c-0.1,0-0.2-0.1-0.2-0.1
	c0,0-0.1,0-0.1-0.1l-0.2,0.5c0,0,0,0,0,0l0,0c0.1,0.1,0.3,0.1,0.4,0.2c0.3,0.1,0.6,0.1,0.9,0.1c0.5,0,0.9-0.1,1.3-0.3
	c0.3-0.2,0.5-0.6,0.5-1c0-0.1,0-0.2,0-0.3C163.6,49.9,163.5,49.9,163.5,49.8z M146.7,50.8c-0.1,0.1-0.2,0.1-0.4,0.1
	c-0.2,0.1-0.4,0.1-0.6,0.1c-0.3,0-0.5,0-0.8-0.1c-0.2-0.1-0.4-0.2-0.5-0.4c-0.1-0.2-0.2-0.4-0.3-0.6c-0.1-0.2-0.1-0.5-0.1-0.8
	c0-0.3,0-0.5,0.1-0.7c0.1-0.2,0.2-0.5,0.3-0.7c0.3-0.3,0.7-0.5,1.2-0.5c0.2,0,0.4,0,0.6,0.1c0.1,0,0.3,0.1,0.4,0.1l0.2-0.5
	c0,0,0,0,0,0l0,0c-0.2-0.1-0.3-0.1-0.5-0.2c-0.2,0-0.5-0.1-0.7-0.1c-0.3,0-0.6,0.1-0.9,0.2c-0.3,0.1-0.5,0.3-0.7,0.5
	c-0.2,0.2-0.3,0.5-0.4,0.8c-0.1,0.3-0.1,0.7-0.1,1c0,0.3,0,0.7,0.1,1c0.1,0.3,0.2,0.5,0.4,0.8c0.2,0.2,0.4,0.4,0.7,0.5
	c0.3,0.1,0.6,0.2,1,0.2c0.2,0,0.5,0,0.7-0.1c0.2,0,0.3-0.1,0.5-0.2l0,0c0,0,0,0,0,0L146.7,50.8z M123.8,46.9c-0.1,0-0.2-0.1-0.4-0.1
	c-0.2,0-0.4,0-0.5,0l0,0c-0.3,0-0.6,0-1,0.1c-0.2,0.1-0.4,0.1-0.6,0.2v4.5h0v0h0.6v-4.1c0.1,0,0.2-0.1,0.3-0.1
	c0.2,0,0.4-0.1,0.6-0.1c0.2,0,0.4,0,0.6,0c0.1,0,0.2,0,0.3,0.1L123.8,46.9C123.8,46.9,123.8,46.9,123.8,46.9L123.8,46.9z M92.8,51
	c-0.1,0-0.2-0.1-0.2-0.1c-0.1-0.1-0.1-0.1-0.1-0.2c0-0.1,0-0.2,0-0.3v-5.9v0l-0.6,0.1v0v5.8v0c0,0.2,0,0.4,0.1,0.6
	c0,0.1,0.1,0.3,0.2,0.4c0.1,0.1,0.2,0.2,0.4,0.2c0.2,0,0.3,0.1,0.5,0.1l0.1-0.5c0,0,0,0,0,0l0,0C93,51.1,92.9,51.1,92.8,51z
	 M86.2,47.8c0.1,0.2,0.1,0.5,0.1,0.7v0v2.9v0c-0.1,0-0.1,0-0.3,0.1c-0.1,0-0.2,0-0.4,0.1s-0.3,0-0.5,0.1c-0.2,0-0.4,0-0.6,0
	c-0.2,0-0.5,0-0.7-0.1c-0.2,0-0.4-0.1-0.5-0.3c-0.2-0.1-0.3-0.3-0.4-0.5c-0.1-0.2-0.1-0.4-0.1-0.7c0,0,0,0,0,0c0,0,0,0,0,0
	c0-0.2,0-0.4,0.1-0.7c0.1-0.2,0.2-0.3,0.4-0.4c0.2-0.1,0.4-0.2,0.6-0.3c0.3-0.1,0.5-0.1,0.8-0.1c0.1,0,0.2,0,0.3,0s0.2,0,0.3,0
	s0.2,0,0.2,0c0,0,0.1,0,0.1,0v-0.3c0-0.2,0-0.3,0-0.5c0-0.1-0.1-0.3-0.2-0.4c-0.1-0.1-0.2-0.2-0.3-0.3c-0.2-0.1-0.4-0.1-0.6-0.1
	c-0.3,0-0.5,0-0.8,0.1c-0.2,0-0.3,0.1-0.4,0.1l-0.1-0.5c0,0,0,0,0,0l0,0c0.2-0.1,0.3-0.1,0.5-0.1c0.3,0,0.5-0.1,0.8-0.1l0,0
	c0.3,0,0.5,0,0.8,0.1c0.2,0.1,0.4,0.2,0.5,0.4C86.1,47.4,86.2,47.6,86.2,47.8z M84.4,51c0.1,0,0.2,0,0.3,0l0,0c0.2,0,0.4,0,0.6,0
	c0.1,0,0.3,0,0.4-0.1v-1.6c-0.1,0-0.2-0.1-0.3-0.1c-0.2,0-0.4-0.1-0.6,0c-0.2,0-0.3,0-0.5,0c-0.2,0-0.3,0.1-0.4,0.1
	c-0.1,0.1-0.2,0.2-0.3,0.3c0,0.1-0.1,0.1-0.1,0.2c0,0.1,0,0.2,0,0.2c0,0.2,0,0.3,0.1,0.4c0.1,0.1,0.1,0.2,0.2,0.3
	c0.1,0.1,0.2,0.1,0.4,0.2C84.2,51,84.3,51,84.4,51z M76.9,46.8c0.3,0.1,0.5,0.1,0.6,0.2v0v4.3v0c0.1,0.6-0.1,1.1-0.5,1.5
	c-0.5,0.3-1.1,0.5-1.6,0.4c-0.3,0-0.5,0-0.8-0.1c-0.2,0-0.4-0.1-0.6-0.2l0,0c0,0,0,0,0,0l0.1-0.5c0.2,0.1,0.4,0.1,0.6,0.2
	c0.2,0,0.5,0.1,0.8,0.1c0.4,0,0.9-0.1,1.2-0.3c0.3-0.3,0.4-0.7,0.4-1.1l0-0.3v0c-0.1,0-0.1,0.1-0.2,0.1c-0.1,0-0.2,0.1-0.3,0.1
	c-0.1,0-0.2,0.1-0.4,0.1c-0.2,0-0.3,0-0.5,0c-0.3,0-0.5,0-0.8-0.1c-0.2-0.1-0.5-0.2-0.7-0.4c-0.2-0.2-0.4-0.4-0.5-0.7
	c-0.1-0.3-0.2-0.7-0.2-1c0,0,0,0,0,0c0,0,0,0,0,0c0-0.3,0-0.6,0.2-0.9c0.1-0.3,0.2-0.5,0.4-0.7c0.2-0.2,0.4-0.4,0.7-0.5
	c0.3-0.1,0.6-0.2,0.9-0.2C76.2,46.7,76.6,46.7,76.9,46.8z M75.7,50.8c0.2,0,0.5,0,0.7-0.1c0.2-0.1,0.4-0.2,0.5-0.3l0-3
	c-0.1,0-0.3-0.1-0.4-0.1c-0.2,0-0.5,0-0.7,0c-0.2,0-0.5,0-0.7,0.1c-0.2,0.1-0.4,0.2-0.5,0.4c-0.1,0.2-0.2,0.4-0.3,0.6
	c0,0.1,0,0.1,0,0.2c0,0.1,0,0.1,0,0.2c0,0.1,0,0.1,0,0.2c0,0.1,0,0.1,0,0.2c0,0.3,0,0.5,0.1,0.8c0.1,0.2,0.2,0.4,0.3,0.5
	c0.1,0.1,0.3,0.2,0.5,0.3C75.4,50.8,75.6,50.8,75.7,50.8z M116,48.5c0,0.2,0,0.3,0,0.5c0,0,0,0.1,0,0.1s0,0.1,0,0.1h-3.3
	c0,0.5,0.1,0.9,0.4,1.3c0.3,0.3,0.8,0.5,1.3,0.5c0.3,0,0.5,0,0.8-0.1c0.1,0,0.3-0.1,0.4-0.2l0.1,0.5c0,0,0,0,0,0l0,0
	c-0.2,0.1-0.3,0.1-0.5,0.2c-0.3,0.1-0.5,0.1-0.8,0.1c-0.4,0-0.7-0.1-1-0.2c-0.3-0.1-0.5-0.3-0.7-0.5c-0.2-0.2-0.3-0.5-0.4-0.8
	c0,0,0,0,0,0c0,0,0,0,0,0c0-0.1-0.1-0.2-0.1-0.4c0,0,0-0.1,0-0.1c0-0.1,0-0.2,0-0.2c0-0.1,0-0.2,0-0.3c0,0,0,0,0,0l0,0
	c0-0.4,0.1-0.7,0.2-1.1c0.1-0.3,0.3-0.5,0.5-0.8c0.2-0.2,0.4-0.4,0.7-0.5c0.2-0.1,0.5-0.1,0.8-0.1c0.5,0,1,0.2,1.4,0.6
	C115.7,47.6,115.9,48.1,116,48.5z M112.7,48.8h2.7c0-0.2,0-0.4-0.1-0.6c-0.1-0.2-0.1-0.4-0.3-0.5c-0.2-0.3-0.6-0.4-0.9-0.4
	c-0.2,0-0.4,0-0.6,0.1c-0.2,0.1-0.3,0.2-0.4,0.3c-0.1,0.1-0.2,0.3-0.3,0.5C112.7,48.4,112.7,48.6,112.7,48.8z M107.1,50.1
	C107.1,50.1,107.1,50,107.1,50.1c0-0.1-0.1-0.2-0.1-0.3c-0.1-0.1-0.2-0.3-0.3-0.4c-0.1-0.1-0.3-0.2-0.4-0.3
	c-0.2-0.1-0.3-0.1-0.5-0.2s-0.3-0.1-0.5-0.2c-0.1-0.1-0.2-0.1-0.3-0.2c-0.1-0.1-0.2-0.1-0.2-0.2c0-0.1-0.1-0.2-0.1-0.3
	c0-0.1,0-0.2,0.1-0.3c0.1-0.1,0.1-0.2,0.2-0.2c0.1-0.1,0.2-0.1,0.3-0.1c0.1,0,0.2,0,0.4,0c0.3,0,0.5,0,0.8,0.1
	c0.1,0,0.2,0.1,0.4,0.1l0.1-0.5c0,0,0,0,0,0l0,0c-0.1-0.1-0.3-0.1-0.4-0.1c-0.3-0.1-0.5-0.1-0.8-0.1c-0.4,0-0.8,0.1-1.2,0.4
	c-0.3,0.2-0.4,0.6-0.4,0.9c0,0,0,0,0,0c0,0,0,0,0,0c0,0.2,0,0.3,0.1,0.5c0.1,0.1,0.2,0.3,0.3,0.4c0.1,0.1,0.3,0.2,0.4,0.3
	c0.2,0.1,0.3,0.1,0.5,0.2c0.2,0.1,0.4,0.2,0.5,0.2c0.1,0.1,0.2,0.1,0.4,0.2c0.1,0.1,0.2,0.1,0.2,0.2c0,0.1,0.1,0.2,0.1,0.3
	c0,0.2-0.1,0.5-0.3,0.6c-0.3,0.1-0.5,0.2-0.8,0.2l0,0c-0.2,0-0.3,0-0.5,0c-0.1,0-0.2,0-0.4-0.1c-0.1,0-0.2-0.1-0.2-0.1
	c0,0-0.1,0-0.1-0.1l-0.2,0.5c0,0,0,0,0,0l0,0c0.1,0.1,0.3,0.1,0.4,0.2c0.3,0.1,0.6,0.1,0.9,0.1c0.5,0,0.9-0.1,1.3-0.3
	c0.3-0.2,0.5-0.6,0.5-1c0,0,0,0,0,0c0,0,0,0,0,0C107.1,50.2,107.1,50.1,107.1,50.1z M68.1,47.3c0.4,0.5,0.6,1.1,0.5,1.7c0,0,0,0,0,0
	c0,0,0,0.1,0,0.1c0,0,0,0,0,0c0,0,0,0,0,0c0,0,0,0.1,0,0.1h0c0,0,0,0,0,0h-3.3c0,0.5,0.1,0.9,0.4,1.3c0.3,0.3,0.8,0.5,1.3,0.5
	c0.3,0,0.5,0,0.8-0.1c0.1,0,0.3-0.1,0.4-0.2l0.1,0.5c0,0,0,0,0,0l0,0c-0.2,0.1-0.3,0.1-0.5,0.2c-0.3,0.1-0.5,0.1-0.8,0.1
	c-0.4,0-0.7-0.1-1-0.2c-0.3-0.1-0.5-0.3-0.7-0.5c-0.2-0.2-0.3-0.5-0.4-0.8c-0.1-0.3-0.1-0.7-0.1-1c0,0,0,0,0,0s0,0,0,0l0,0
	c0-0.4,0.1-0.7,0.2-1.1c0,0,0,0,0,0c0,0,0,0,0,0c0.1-0.3,0.3-0.5,0.5-0.8c0.2-0.2,0.4-0.4,0.7-0.5c0.2-0.1,0.5-0.1,0.8-0.1
	C67.2,46.7,67.7,46.9,68.1,47.3z M68,48.8c0-0.4-0.1-0.8-0.3-1.1c-0.2-0.3-0.6-0.4-0.9-0.4c-0.2,0-0.4,0-0.6,0.1
	c-0.2,0.1-0.3,0.2-0.4,0.3c-0.1,0.1-0.2,0.3-0.3,0.5c-0.1,0.2-0.1,0.4-0.1,0.6H68z"/>
</svg>
